<svg xmlns="http://www.w3.org/2000/svg" xmlns:xlink="http://www.w3.org/1999/xlink" xmlns:lucid="lucid" width="980" height="940"><g transform="translate(-180 -40)" lucid:page-tab-id="0_0"><path d="M0 0h1870.87v1322.83H0z" fill="#fff"/><path d="M200 66a6 6 0 0 1 6-6h928a6 6 0 0 1 6 6v888a6 6 0 0 1-6 6H206a6 6 0 0 1-6-6z" stroke="#3a414a" fill="#fff"/><path d="M320 206a6 6 0 0 1 6-6h688a6 6 0 0 1 6 6v588a6 6 0 0 1-6 6H326a6 6 0 0 1-6-6z" stroke="#3a414a" fill="#fff"/><path d="M637.5 246a6 6 0 0 1 6-6h53a6 6 0 0 1 6 6v48a6 6 0 0 1-6 6h-53a6 6 0 0 1-6-6z" stroke="#3a414a" fill="#fff"/><path d="M693.75 270c0 13.8-10.63 25-23.75 25s-23.75-11.2-23.75-25 10.63-25 23.75-25 23.75 11.2 23.75 25zM880 246a6 6 0 0 1 6-6h68a6 6 0 0 1 6 6v48a6 6 0 0 1-6 6h-68a6 6 0 0 1-6-6z" stroke="#3a414a" fill="#fff"/><use xlink:href="#a" transform="matrix(1,0,0,1,885,245) translate(16.48148148148148 30.27777777777778)"/><path d="M380 246a6 6 0 0 1 6-6h68a6 6 0 0 1 6 6v48a6 6 0 0 1-6 6h-68a6 6 0 0 1-6-6z" stroke="#3a414a" fill="#fff"/><use xlink:href="#b" transform="matrix(1,0,0,1,385,245) translate(22.654320987654323 30.27777777777778)"/><path d="M380 346a6 6 0 0 1 6-6h568a6 6 0 0 1 6 6v388a6 6 0 0 1-6 6H386a6 6 0 0 1-6-6z" stroke="#3a414a" fill="#fff"/><path d="M380.06 661.42h580.37" stroke="#3a414a" fill="none"/><path d="M380.07 661.92h-.5v-1h.5z" stroke="#3a414a" stroke-width=".05" fill="#3a414a"/><path d="M960.4 661.42h.53M380.07 700H959.5" stroke="#3a414a" fill="none"/><path d="M380.08 700.5h-.5v-1h.5z" stroke="#3a414a" stroke-width=".05" fill="#3a414a"/><path d="M959.5 700h.5M380.05 620h580.38" stroke="#3a414a" fill="none"/><path d="M380.06 620.5h-.5v-1h.5z" stroke="#3a414a" stroke-width=".05" fill="#3a414a"/><path d="M960.4 620h.53M380.04 580h579.92" stroke="#3a414a" fill="none"/><path d="M380.06 580.5h-.52v-1h.52z" stroke="#3a414a" stroke-width=".05" fill="#3a414a"/><path d="M959.95 580h.5M380.04 540H960.9" stroke="#3a414a" fill="none"/><path d="M380.05 540.5h-.5v-1h.5z" stroke="#3a414a" stroke-width=".05" fill="#3a414a"/><path d="M960.88 540h.5M380.03 500H959.5" stroke="#3a414a" fill="none"/><path d="M380.04 500.5h-.5v-1h.5z" stroke="#3a414a" stroke-width=".05" fill="#3a414a"/><path d="M959.5 500h.5M380.02 460h580.4" stroke="#3a414a" fill="none"/><path d="M380.03 460.5h-.5v-1h.5z" stroke="#3a414a" stroke-width=".05" fill="#3a414a"/><path d="M960.4 460h.53M380 420h580.43" stroke="#3a414a" fill="none"/><path d="M380.03 420.5h-.52v-1h.53z" stroke="#3a414a" stroke-width=".05" fill="#3a414a"/><path d="M960.4 420h.53M380 380h579.5" stroke="#3a414a" fill="none"/><path d="M380.02 380.5h-.5v-1h.5z" stroke="#3a414a" stroke-width=".05" fill="#3a414a"/><path d="M959.5 380h.5M480 340.06V739.5" stroke="#3a414a" fill="none"/><path d="M480.5 340.07h-1v-.5h1z" stroke="#3a414a" stroke-width=".05" fill="#3a414a"/><path d="M480 739.5v.5M520 340.06V739.5" stroke="#3a414a" fill="none"/><path d="M520.5 340.07h-1v-.5h1z" stroke="#3a414a" stroke-width=".05" fill="#3a414a"/><path d="M520 739.5v.5M560 340.05v400.38" stroke="#3a414a" fill="none"/><path d="M560.5 340.06h-1v-.5h1z" stroke="#3a414a" stroke-width=".05" fill="#3a414a"/><path d="M560 740.4v.53M600 340.05V739.5" stroke="#3a414a" fill="none"/><path d="M600.5 340.06h-1v-.5h1z" stroke="#3a414a" stroke-width=".05" fill="#3a414a"/><path d="M600 739.5v.5M637.5 340.04v399.9" stroke="#3a414a" fill="none"/><path d="M638 340.05h-1v-.5h1z" stroke="#3a414a" stroke-width=".05" fill="#3a414a"/><path d="M637.5 739.94v.5M680 340.04v399.9" stroke="#3a414a" fill="none"/><path d="M680.5 340.05h-1v-.5h1z" stroke="#3a414a" stroke-width=".05" fill="#3a414a"/><path d="M680 739.94v.5M720 340.03v399.92" stroke="#3a414a" fill="none"/><path d="M720.5 340.04h-1v-.5h1z" stroke="#3a414a" stroke-width=".05" fill="#3a414a"/><path d="M720 739.94v.5M760 340.03V739.5" stroke="#3a414a" fill="none"/><path d="M760.5 340.04h-1v-.5h1z" stroke="#3a414a" stroke-width=".05" fill="#3a414a"/><path d="M760 739.5v.5M800 340.02V739.5" stroke="#3a414a" fill="none"/><path d="M800.5 340.03h-1v-.5h1z" stroke="#3a414a" stroke-width=".05" fill="#3a414a"/><path d="M800 739.5v.5M840 340v399.5" stroke="#3a414a" fill="none"/><path d="M840.5 340.03h-1v-.52h1z" stroke="#3a414a" stroke-width=".05" fill="#3a414a"/><path d="M840 739.5v.5M880 340v399.95" stroke="#3a414a" fill="none"/><path d="M880.5 340.02h-1v-.5h1z" stroke="#3a414a" stroke-width=".05" fill="#3a414a"/><path d="M880 739.94v.5M920 340v399.5" stroke="#3a414a" fill="none"/><path d="M920.5 340.02h-1v-.52h1z" stroke="#3a414a" stroke-width=".05" fill="#3a414a"/><path d="M920 739.5v.5M440 340.07v399.88" stroke="#3a414a" fill="none"/><path d="M440.5 340.08h-1v-.5h1z" stroke="#3a414a" stroke-width=".05" fill="#3a414a"/><path d="M440 739.94v.5M380.04 540H394" stroke="#3a414a" fill="none"/><path d="M380.05 540.5h-.5v-1h.5z" stroke="#3a414a" stroke-width=".05" fill="#3a414a"/><path d="M393.98 540h.5" stroke="#3a414a" fill="none"/><defs><path fill="#3a414a" d="M27 0v-27h64v-190l-56 39v-29l58-41h29v221h61V0H27" id="c"/><path fill="#3a414a" d="M99-251c64 0 84 50 84 122C183-37 130 33 47-8c-14-7-20-23-25-40l30-5c6 39 69 39 84 7 9-19 16-44 16-74-10 22-31 35-62 35-49 0-73-33-73-83 0-54 28-83 82-83zm-1 141c31-1 51-18 51-49 0-36-14-67-51-67-34 0-49 23-49 58 0 34 15 58 49 58" id="d"/><g id="a"><use transform="matrix(0.06172839506172839,0,0,0.06172839506172839,0,0)" xlink:href="#c"/><use transform="matrix(0.06172839506172839,0,0,0.06172839506172839,12.345679012345679,0)" xlink:href="#d"/><use transform="matrix(0.06172839506172839,0,0,0.06172839506172839,24.691358024691358,0)" xlink:href="#d"/></g><g id="b"><use transform="matrix(0.06172839506172839,0,0,0.06172839506172839,0,0)" xlink:href="#d"/><use transform="matrix(0.06172839506172839,0,0,0.06172839506172839,12.345679012345679,0)" xlink:href="#d"/></g></defs></g></svg>